<?xml version="1.0" encoding="utf-8"?>
<svg width="256" height="256" version="1.1" viewBox="0 0 256 256" xmlns="http://www.w3.org/2000/svg" xmlns:bx="https://boxy-svg.com"><defs><linearGradient id="Gradient" x1="0" x2="0" y1="0" y2="1"><stop offset="0" style="stop-color:#000000;stop-opacity:1"/><stop offset="1" style="stop-color:#1C71D8;stop-opacity:1"/></linearGradient><filter id="alpha-to-white"><feColorMatrix in="SourceGraphic" type="matrix" values="0 0 0 0 1 0 0 0 0 1 0 0 0 0 1 0 0 0 1 0"/></filter><g id="child-svg"><svg xmlns="http://www.w3.org/2000/svg" width="128px" height="128px" viewBox="0 0 128 128" version="1.1"><g id="surface1"><path style="fill-rule:nonzero;fill:rgb(0%,0%,0%);fill-opacity:1;stroke-width:1;stroke-linecap:butt;stroke-linejoin:miter;stroke:rgb(100%,100%,100%);stroke-opacity:1;stroke-miterlimit:4;" d="M 74.60022 319.396973 L 13.397217 235.107422 L 74.60022 235.107422 L 112.197876 186.401367 C 112.197876 186.401367 113.90686 184.997559 117.401123 182.495117 C 121.002197 179.992676 127.807617 179.595947 127.807617 179.595947 L 176.498413 179.595947 L 176.498413 162.506104 L 198.59314 162.506104 L 210.998535 133.499146 L 227.005005 133.499146 L 220.596313 149.597168 L 229.705811 162.506104 L 287.994385 162.506104 L 287.994385 179.595947 L 382.995605 179.595947 C 382.995605 179.595947 391.403198 179.595947 396.697998 184.09729 C 403.900146 190.093994 404.800415 194.900513 404.800415 194.900513 L 420.196533 235.107422 L 454.299927 235.107422 L 486.602783 319.396973 C 486.602783 319.396973 449.203491 296.401978 389.404297 299.3927 C 340.698242 302.307129 321.70105 319.000244 266.204834 319.000244 C 235.900879 319.000244 190.704346 303.80249 155.899048 303.207397 C 130.2948 302.79541 88.592529 313.705444 74.60022 319.396973 M 101.303101 357.803345 C 121.704102 352.798462 149.597168 344.406128 198.59314 354.705811 C 222.793579 359.695435 245.697021 365.097046 268.203735 365.707397 C 297.50061 365.79895 313.705444 360.702515 336.395264 355.102539 C 356.796265 349.79248 380.599976 345.397949 398.605347 345.596313 C 429.992676 346.099854 453.994751 351.104736 467.300415 356.994629 L 457.702637 330.993652 C 431.70166 322.20459 387.405396 317.092896 336.395264 331.695557 C 314.89563 338.302612 292.694092 342.605591 270.004272 342.300415 C 249.49646 341.903687 229.797363 338.806152 209.594727 334.396362 C 145.004272 319.396973 120.498657 329.605103 87.70752 338.302612 Z M 100.692749 235.107422 L 160.598755 235.107422 L 160.598755 198.59314 L 137.207031 198.59314 C 137.207031 198.59314 132.400513 199.203491 126.907349 202.697754 C 123.596191 204.696655 117.004395 213.699341 117.004395 213.699341 Z M 254.394531 235.107422 L 316.604614 235.107422 L 316.604614 198.59314 L 254.394531 198.59314 Z M 386.703491 207.504272 C 386.703491 207.504272 385.101318 203.50647 382.507324 201.599121 C 378.997803 199.203491 375.793457 198.59314 375.793457 198.59314 L 332.397461 198.59314 L 332.397461 235.107422 L 397.201538 235.107422 Z M 176.498413 235.107422 L 239.105225 235.107422 L 238.90686 198.59314 L 176.498413 198.59314 Z M 176.498413 235.107422 " transform="matrix(0.256,0,0,0.256,0,0)"/></g></svg></g><bx:export><bx:file format="svg"/></bx:export></defs><rect width="256" height="256" fill="url(#Gradient)" ry="0" x="0" y="0"/><g transform="matrix(1.645433, 0, 0, 1.645433, 22.692284, 22.859142)" filter="url(#alpha-to-white)" style=""><svg xmlns="http://www.w3.org/2000/svg" width="128px" height="128px" viewBox="0 0 128 128" version="1.1"><g><path style="fill-rule:nonzero;fill:rgb(0%,0%,0%);fill-opacity:1;stroke-width:1;stroke-linecap:butt;stroke-linejoin:miter;stroke:rgb(100%,100%,100%);stroke-opacity:1;stroke-miterlimit:4;" d="M 74.60022 319.396973 L 13.397217 235.107422 L 74.60022 235.107422 L 112.197876 186.401367 C 112.197876 186.401367 113.90686 184.997559 117.401123 182.495117 C 121.002197 179.992676 127.807617 179.595947 127.807617 179.595947 L 176.498413 179.595947 L 176.498413 162.506104 L 198.59314 162.506104 L 210.998535 133.499146 L 227.005005 133.499146 L 220.596313 149.597168 L 229.705811 162.506104 L 287.994385 162.506104 L 287.994385 179.595947 L 382.995605 179.595947 C 382.995605 179.595947 391.403198 179.595947 396.697998 184.09729 C 403.900146 190.093994 404.800415 194.900513 404.800415 194.900513 L 420.196533 235.107422 L 454.299927 235.107422 L 486.602783 319.396973 C 486.602783 319.396973 449.203491 296.401978 389.404297 299.3927 C 340.698242 302.307129 321.70105 319.000244 266.204834 319.000244 C 235.900879 319.000244 190.704346 303.80249 155.899048 303.207397 C 130.2948 302.79541 88.592529 313.705444 74.60022 319.396973 M 101.303101 357.803345 C 121.704102 352.798462 149.597168 344.406128 198.59314 354.705811 C 222.793579 359.695435 245.697021 365.097046 268.203735 365.707397 C 297.50061 365.79895 313.705444 360.702515 336.395264 355.102539 C 356.796265 349.79248 380.599976 345.397949 398.605347 345.596313 C 429.992676 346.099854 453.994751 351.104736 467.300415 356.994629 L 457.702637 330.993652 C 431.70166 322.20459 387.405396 317.092896 336.395264 331.695557 C 314.89563 338.302612 292.694092 342.605591 270.004272 342.300415 C 249.49646 341.903687 229.797363 338.806152 209.594727 334.396362 C 145.004272 319.396973 120.498657 329.605103 87.70752 338.302612 Z M 100.692749 235.107422 L 160.598755 235.107422 L 160.598755 198.59314 L 137.207031 198.59314 C 137.207031 198.59314 132.400513 199.203491 126.907349 202.697754 C 123.596191 204.696655 117.004395 213.699341 117.004395 213.699341 Z M 254.394531 235.107422 L 316.604614 235.107422 L 316.604614 198.59314 L 254.394531 198.59314 Z M 386.703491 207.504272 C 386.703491 207.504272 385.101318 203.50647 382.507324 201.599121 C 378.997803 199.203491 375.793457 198.59314 375.793457 198.59314 L 332.397461 198.59314 L 332.397461 235.107422 L 397.201538 235.107422 Z M 176.498413 235.107422 L 239.105225 235.107422 L 238.90686 198.59314 L 176.498413 198.59314 Z M 176.498413 235.107422 " transform="matrix(0.256,0,0,0.256,0,0)"/></g></svg></g></svg>